<?xml version="1.0" encoding="utf-8"?>
<!-- Generator: Adobe Illustrator 24.1.2, SVG Export Plug-In . SVG Version: 6.00 Build 0)  -->
<svg version="1.1" id="Camada_1" xmlns="http://www.w3.org/2000/svg" xmlns:xlink="http://www.w3.org/1999/xlink" x="0px" y="0px"
	 viewBox="0 0 1440 320" style="enable-background:new 0 0 1440 320;" xml:space="preserve">
<style type="text/css">
	.st0{fill:#FFFFFF;}
	.st1{opacity:0.3;fill:#FFFFFF;}
	.st2{opacity:0.4;fill:#FFFFFF;}
	.st3{fill:#4FAE32;}
</style>
<path class="st0" d="M-0.5-1h1443.2v173c-106.1-37.6-193.8-54.3-249.9-62.7C787.4,49.2,566.3,211.5,135.8,140
	C75.3,130,27.2,118-0.5,110.7V-1z"/>
<path class="st0" d="M1604-12.3"/>
<path class="st1" d="M-0.5-1L0,123.2c68.6,22.7,173.6,49.9,302.7,51.1c143.5,1.4,182.1-31.3,400.4-54.2c103.9-10.9,215-22,359.1-8.8
	c144.9,13.3,254.9,45,301.3,59.4c31.6,9.9,57.8,19.2,76.4,26.2l2.7-198H-0.5z"/>
<path class="st0" d="M996-101.7"/>
<path class="st2" d="M-0.5-1v86.5c340.3,48.4,578.7,52.5,737.9,46.2c172.9-6.9,242.4-3.7,381.3,2.7c53,2.4,155.6,8.3,285.3,30.7
	c16.3,2.8,29.7,5.3,38.7,7V-1H-0.5z"/>
<path class="st3" d="M1560,133"/>
</svg>
